<svg xmlns="http://www.w3.org/2000/svg" xmlns:xlink="http://www.w3.org/1999/xlink" xml:space="preserve" version="1.1" style="shape-rendering:geometricPrecision;text-rendering:geometricPrecision;image-rendering:optimizeQuality;" viewBox="0 0 847 1058.75" x="0px" y="0px" fill-rule="evenodd" clip-rule="evenodd"><defs><style type="text/css">
   
    .fil0 {fill:black}
   
  </style></defs><g><path class="fil0" d="M423 21c223,0 403,180 403,402 0,223 -180,403 -403,403 -222,0 -402,-180 -402,-403 0,-222 180,-402 402,-402zm-261 472l523 0 0 70 -523 0 0 -70zm484 10l0 49 11 0 0 -49 -11 0zm-484 -115l523 0 0 70 -523 0 0 -70zm484 11l0 49 11 0 0 -49 -11 0zm-484 -115l523 0 0 70 -523 0 0 -70zm484 10l0 50 11 0 0 -50 -11 0z"/></g><text x="0" y="862" fill="#000000" font-size="5px" font-weight="bold" font-family="'Helvetica Neue', Helvetica, Arial-Unicode, Arial, Sans-serif">Created by amantaka</text><text x="0" y="867" fill="#000000" font-size="5px" font-weight="bold" font-family="'Helvetica Neue', Helvetica, Arial-Unicode, Arial, Sans-serif">from the Noun Project</text></svg>